<?xml version="1.0" encoding="UTF-8"?>
<svg width="1200pt" height="1200pt" version="1.1" viewBox="0 0 1200 1200" xmlns="http://www.w3.org/2000/svg">
 <path d="m962.4 849.6-249.6-619.2-2.3984-3.6016c-22.801-39.602-63.602-63.602-110.4-63.602-46.801 0-87.602 24-110.4 63.602l-1.1992 2.3984-249.61 620.41c-19.199 44.398-14.398 94.801 10.801 133.2 22.801 34.801 60 54 100.8 54h501.6c40.801 0 76.801-18 99.602-51.602 23.996-37.199 28.793-88.801 10.793-135.6zm-609.6-122.4 190.8-471.6c12-20.398 33.602-32.398 57.602-32.398s44.398 12 57.602 32.398l99.602 247.2c-93.605 126-240.01 212.4-405.61 224.4z"/>
</svg>
